<?xml version="1.0" encoding="UTF-8" standalone="no"?>
<!-- Created with Inkscape (http://www.inkscape.org/) -->

<svg
   xmlns:dc="http://purl.org/dc/elements/1.1/"
   xmlns:cc="http://creativecommons.org/ns#"
   xmlns:rdf="http://www.w3.org/1999/02/22-rdf-syntax-ns#"
   xmlns:svg="http://www.w3.org/2000/svg"
   xmlns="http://www.w3.org/2000/svg"
   xmlns:sodipodi="http://sodipodi.sourceforge.net/DTD/sodipodi-0.dtd"
   xmlns:inkscape="http://www.inkscape.org/namespaces/inkscape"
   width="210mm"
   height="297mm"
   viewBox="0 0 744.09448819 1052.3622047"
   id="svg4152"
   version="1.1"
   inkscape:version="0.91 r13725"
   sodipodi:docname="drawing3.svg">
  <defs
     id="defs4154">
    <inkscape:path-effect
       effect="spiro"
       id="path-effect5004"
       is_visible="true" />
    <marker
       inkscape:stockid="Arrow1Lend"
       orient="auto"
       refY="0.0"
       refX="0.0"
       id="Arrow1Lend"
       style="overflow:visible;"
       inkscape:isstock="true">
      <path
         id="path4711"
         d="M 0.0,0.0 L 5.0,-5.0 L -12.5,0.0 L 5.0,5.0 L 0.0,0.0 z "
         style="fill-rule:evenodd;stroke:#000000;stroke-width:1pt;stroke-opacity:1;fill:#000000;fill-opacity:1"
         transform="scale(0.8) rotate(180) translate(12.5,0)" />
    </marker>
    <inkscape:path-effect
       effect="spiro"
       id="path-effect4702"
       is_visible="true" />
    <inkscape:path-effect
       effect="spiro"
       id="path-effect5004-1"
       is_visible="true" />
    <inkscape:path-effect
       effect="spiro"
       id="path-effect5004-6"
       is_visible="true" />
  </defs>
  <sodipodi:namedview
     id="base"
     pagecolor="#ffffff"
     bordercolor="#666666"
     borderopacity="1.0"
     inkscape:pageopacity="0.0"
     inkscape:pageshadow="2"
     inkscape:zoom="1.4"
     inkscape:cx="311.40225"
     inkscape:cy="947.38698"
     inkscape:document-units="px"
     inkscape:current-layer="layer1"
     showgrid="false"
     inkscape:window-width="1366"
     inkscape:window-height="705"
     inkscape:window-x="-8"
     inkscape:window-y="-8"
     inkscape:window-maximized="1" />
  <metadata
     id="metadata4157">
    <rdf:RDF>
      <cc:Work
         rdf:about="">
        <dc:format>image/svg+xml</dc:format>
        <dc:type
           rdf:resource="http://purl.org/dc/dcmitype/StillImage" />
        <dc:title></dc:title>
      </cc:Work>
    </rdf:RDF>
  </metadata>
  <g
     inkscape:label="Layer 1"
     inkscape:groupmode="layer"
     id="layer1">
    <ellipse
       style="fill:#ffffff;stroke:#000000;stroke-width:0.69999999;stroke-miterlimit:4;stroke-dasharray:none;stroke-dashoffset:0;stroke-opacity:1"
       id="path5060"
       cx="335.35715"
       cy="102.36221"
       rx="29.642857"
       ry="4.2857141" />
    <ellipse
       style="fill:#ffffff;stroke:#000000;stroke-width:0.69999999;stroke-miterlimit:4;stroke-dasharray:none;stroke-dashoffset:0;stroke-opacity:1"
       id="path5054"
       cx="257.14285"
       cy="102.71935"
       rx="47.142857"
       ry="4.6428571" />
    <path
       style="fill:none;fill-rule:evenodd;stroke:#000000;stroke-width:0.7;stroke-linecap:butt;stroke-linejoin:miter;stroke-opacity:1;marker-end:url(#Arrow1Lend);stroke-miterlimit:4;stroke-dasharray:none"
       d="m 120.71429,102.3622 340,0"
       id="path4700"
       inkscape:path-effect="#path-effect4702"
       inkscape:original-d="m 120.71429,102.3622 c 340,0 340,0 340,0"
       inkscape:connector-curvature="0" />
    <path
       style="fill:none;fill-rule:evenodd;stroke:#000000;stroke-width:1px;stroke-linecap:butt;stroke-linejoin:miter;stroke-opacity:1"
       d="m 209.28571,95.933632 0,14.285718"
       id="path5002"
       inkscape:path-effect="#path-effect5004"
       inkscape:original-d="m 209.28571,95.933632 c 0,13.571428 0,14.285718 0,14.285718"
       inkscape:connector-curvature="0" />
    <path
       style="fill:none;fill-rule:evenodd;stroke:#000000;stroke-width:1px;stroke-linecap:butt;stroke-linejoin:miter;stroke-opacity:1"
       d="m 304.28571,95.933491 0,14.285709"
       id="path5002-1"
       inkscape:path-effect="#path-effect5004-1"
       inkscape:original-d="m 304.28571,95.933491 c 0,13.571419 0,14.285709 0,14.285709"
       inkscape:connector-curvature="0" />
    <path
       style="fill:none;fill-rule:evenodd;stroke:#000000;stroke-width:1px;stroke-linecap:butt;stroke-linejoin:miter;stroke-opacity:1"
       d="m 365.714,95.93349 0,14.28571"
       id="path5002-5"
       inkscape:path-effect="#path-effect5004-6"
       inkscape:original-d="m 365.714,95.93349 c 0,13.57142 0,14.28571 0,14.28571"
       inkscape:connector-curvature="0" />
    <text
       xml:space="preserve"
       style="font-style:normal;font-weight:normal;font-size:16.25px;line-height:125%;font-family:sans-serif;letter-spacing:0px;word-spacing:0px;fill:#000000;fill-opacity:1;stroke:none;stroke-width:1px;stroke-linecap:butt;stroke-linejoin:miter;stroke-opacity:1"
       x="447.85715"
       y="121.64792"
       id="text5062"
       sodipodi:linespacing="125%"><tspan
         sodipodi:role="line"
         id="tspan5064"
         x="447.85715"
         y="121.64792"
         style="font-size:12.5px">$t$, continuous time</tspan></text>
    <text
       xml:space="preserve"
       style="font-style:normal;font-weight:normal;font-size:16.25px;line-height:125%;font-family:sans-serif;letter-spacing:0px;word-spacing:0px;fill:#000000;fill-opacity:1;stroke:none;stroke-width:1px;stroke-linecap:butt;stroke-linejoin:miter;stroke-opacity:1"
       x="250.71429"
       y="91.647903"
       id="text5066"
       sodipodi:linespacing="125%"><tspan
         sodipodi:role="line"
         id="tspan5068"
         x="250.71429"
         y="91.647903"
         style="font-size:12.5px">$y_i$</tspan></text>
    <text
       xml:space="preserve"
       style="font-style:normal;font-weight:normal;font-size:16.25px;line-height:125%;font-family:sans-serif;letter-spacing:0px;word-spacing:0px;fill:#000000;fill-opacity:1;stroke:none;stroke-width:1px;stroke-linecap:butt;stroke-linejoin:miter;stroke-opacity:1"
       x="328.57144"
       y="93.790779"
       id="text5070"
       sodipodi:linespacing="125%"><tspan
         sodipodi:role="line"
         id="tspan5072"
         x="328.57144"
         y="93.790779"
         style="font-size:12.5px">$x_i$</tspan><tspan
         sodipodi:role="line"
         x="328.57144"
         y="109.41578"
         id="tspan5074" /></text>
    <path
       inkscape:connector-curvature="0"
       d="m 302.62055,76.362205 0,-1.045918 c 0,-1.255102 0,-2.091837 -0.47999,-2.928571 -0.48001,-0.836735 -1.92004,-1.67347 -3.84005,-2.301021 -1.92003,-0.627551 -3.84006,-0.836735 -6.24008,-1.045918 -2.40003,-0.209184 -6.72008,-0.209184 -12.48015,-0.209184 -4.32003,0 -7.20008,0 -9.60011,-0.209184 -2.40002,-0.209184 -4.80007,-0.627551 -6.24007,-1.255102 -1.44002,-0.627551 -2.40004,-1.464285 -2.40004,-2.719387 l -7.6801,0 c 0,1.255102 -0.96002,2.091836 -2.40003,2.719387 -1.44001,0.627551 -3.84004,1.045918 -6.24006,1.255102 -2.40004,0.209184 -5.28006,0.209184 -9.60014,0.209184 -5.76005,0 -10.08011,0 -12.48012,0.209184 -2.40004,0.209183 -4.32008,0.418367 -6.24008,1.045918 -1.92003,0.627551 -3.36005,1.464286 -3.84006,2.301021 -0.48,0.836734 -0.48,1.673469 -0.48,2.928571 l 0,1.045918 7.20009,0 0,-0.627551 c 0,-1.464286 0.48001,-2.30102 1.44002,-2.719388 1.44002,-0.62755 1.92003,-0.836734 3.36003,-0.836734 l 12.00015,0 c 7.20008,0 12.00014,-0.418368 14.88017,-1.045918 2.88004,-0.627552 4.80007,-1.882654 6.24009,-3.137756 1.44,1.255102 3.36003,2.510204 6.24008,3.137756 2.88002,0.62755 7.68008,1.045918 14.88016,1.045918 l 12.00015,0 c 1.44002,0 1.92004,0.209184 3.36005,0.836734 0.96,0.418368 1.44,1.255102 1.44,2.719388 l 0,0.627551 7.20009,0 z"
       id="llv"
       style="stroke-width:10;stroke-miterlimit:4;stroke-dasharray:none" />
    <path
       inkscape:connector-curvature="0"
       d="m 365.83483,76.362205 0,-1.045918 c 0,-1.255102 0,-2.091837 -0.32802,-2.928571 -0.32803,-0.836735 -1.31214,-1.67347 -2.62425,-2.301021 -1.31213,-0.627551 -2.62425,-0.836735 -4.2644,-1.045918 -1.64014,-0.209184 -4.59241,-0.209184 -8.52878,-0.209184 -2.95226,0 -4.92044,0 -6.56059,-0.209184 -1.64015,-0.209184 -3.28031,-0.627551 -4.26439,-1.255102 -0.9841,-0.627551 -1.64017,-1.464285 -1.64017,-2.719387 l -5.24848,0 c 0,1.255102 -0.65606,2.091836 -1.64014,2.719387 -0.98409,0.627551 -2.62425,1.045918 -4.26439,1.255102 -1.64016,0.209184 -3.60833,0.209184 -6.56061,0.209184 -3.93636,0 -6.88863,0 -8.52877,0.209184 -1.64016,0.209183 -2.95228,0.418367 -4.26439,1.045918 -1.31212,0.627551 -2.29622,1.464286 -2.62425,2.301021 -0.32803,0.836734 -0.32803,1.673469 -0.32803,2.928571 l 0,1.045918 4.92046,0 0,-0.627551 c 0,-1.464286 0.32802,-2.30102 0.98408,-2.719388 0.9841,-0.62755 1.31213,-0.836734 2.29621,-0.836734 l 8.20076,0 c 4.92044,0 8.20075,-0.418368 10.16893,-1.045918 1.96818,-0.627552 3.2803,-1.882654 4.26439,-3.137756 0.98408,1.255102 2.29621,2.510204 4.2644,3.137756 1.96817,0.62755 5.24847,1.045918 10.16892,1.045918 l 8.20076,0 c 0.98408,0 1.31212,0.209184 2.29621,0.836734 0.65605,0.418368 0.98408,1.255102 0.98408,2.719388 l 0,0.627551 4.92046,0 z"
       id="llv-4"
       style="stroke-width:10;stroke-miterlimit:4;stroke-dasharray:none" />
    <path
       inkscape:connector-curvature="0"
       d="m 363.69197,130.07649 0,1.04592 c 0,1.2551 0,2.09184 -0.78013,2.92857 -0.78017,0.83674 -3.12066,1.67347 -6.24127,2.30102 -3.12064,0.62755 -6.24129,0.83674 -10.14206,1.04592 -3.90079,0.20918 -10.92221,0.20918 -20.2841,0.20918 -7.02139,0 -11.70236,0 -15.60315,0.20919 -3.90077,0.20918 -7.8016,0.62755 -10.14204,1.2551 -2.34048,0.62755 -3.90081,1.46429 -3.90081,2.71939 l -12.48253,0 c 0,-1.2551 -1.56033,-2.09184 -3.90079,-2.71939 -2.34047,-0.62755 -6.24126,-1.04592 -10.14203,-1.2551 -3.90081,-0.20919 -8.58173,-0.20919 -15.6032,-0.20919 -9.36186,0 -16.38329,0 -20.28405,-0.20918 -3.90081,-0.20918 -7.02146,-0.41837 -10.14206,-1.04592 -3.12064,-0.62755 -5.46112,-1.46428 -6.24128,-2.30102 -0.78015,-0.83673 -0.78015,-1.67347 -0.78015,-2.92857 l 0,-1.04592 11.70237,0 0,0.62755 c 0,1.46429 0.78017,2.30102 2.34048,2.71939 2.34048,0.62755 3.12064,0.83674 5.46109,0.83674 l 19.50395,0 c 11.70235,0 19.50394,0.41836 24.18488,1.04591 4.68095,0.62756 7.80159,1.88266 10.14207,3.13776 2.34045,-1.2551 5.46109,-2.5102 10.14206,-3.13776 4.68092,-0.62755 12.4825,-1.04591 24.18486,-1.04591 l 19.50395,0 c 2.34048,0 3.12066,-0.20919 5.46112,-0.83674 1.5603,-0.41837 2.34045,-1.2551 2.34045,-2.71939 l 0,-0.62755 11.70237,0 z"
       id="llv-9"
       style="stroke-width:10;stroke-miterlimit:4;stroke-dasharray:none" />
    <text
       xml:space="preserve"
       style="font-style:normal;font-weight:normal;font-size:12.5px;line-height:125%;font-family:sans-serif;letter-spacing:0px;word-spacing:0px;fill:#000000;fill-opacity:1;stroke:none;stroke-width:1px;stroke-linecap:butt;stroke-linejoin:miter;stroke-opacity:1"
       x="216.42857"
       y="52.362202"
       id="text5121"
       sodipodi:linespacing="125%"><tspan
         sodipodi:role="line"
         id="tspan5123"
         x="216.42857"
         y="52.362202">$\deltat_p$</tspan></text>
    <text
       xml:space="preserve"
       style="font-style:normal;font-weight:normal;font-size:16.25px;line-height:125%;font-family:sans-serif;letter-spacing:0px;word-spacing:0px;fill:#000000;fill-opacity:1;stroke:none;stroke-width:1px;stroke-linecap:butt;stroke-linejoin:miter;stroke-opacity:1"
       x="310"
       y="53.790771"
       id="text5125"
       sodipodi:linespacing="125%"><tspan
         sodipodi:role="line"
         id="tspan5127"
         x="310"
         y="53.790771"
         style="font-size:12.5px">$\deltat_r$</tspan></text>
    <text
       xml:space="preserve"
       style="font-style:normal;font-weight:normal;font-size:16.25px;line-height:125%;font-family:sans-serif;letter-spacing:0px;word-spacing:0px;fill:#000000;fill-opacity:1;stroke:none;stroke-width:1px;stroke-linecap:butt;stroke-linejoin:miter;stroke-opacity:1"
       x="359.28574"
       y="119.50506"
       id="text5129"
       sodipodi:linespacing="125%"><tspan
         sodipodi:role="line"
         id="tspan5131"
         x="359.28574"
         y="119.50506"
         style="font-size:12.5px">t_i</tspan></text>
    <text
       xml:space="preserve"
       style="font-style:normal;font-weight:normal;font-size:16.25px;line-height:125%;font-family:sans-serif;letter-spacing:0px;word-spacing:0px;fill:#000000;fill-opacity:1;stroke:none;stroke-width:1px;stroke-linecap:butt;stroke-linejoin:miter;stroke-opacity:1"
       x="267.14285"
       y="155.21935"
       id="text5133"
       sodipodi:linespacing="125%"><tspan
         sodipodi:role="line"
         id="tspan5135"
         x="267.14285"
         y="155.21935"
         style="font-size:12.5px">$\deltat_i$</tspan></text>
  </g>
</svg>
